<svg width="33" height="13" viewBox="0 0 33 13" fill="none" xmlns="http://www.w3.org/2000/svg">
<path d="M5.05038 2.6678C5.41434 2.54952 5.80344 2.48597 6.20859 2.48597C7.97528 2.48597 9.45029 3.70656 9.78815 5.32897L12.2925 4.83206C11.7179 2.07501 9.21277 0 6.20859 0C5.5202 0 4.85892 0.109128 4.24023 0.310194L5.05038 2.6678Z" fill="#303030"/>
<path d="M2.09547 10.5625L3.78903 8.70011C3.03304 8.04866 2.55606 7.09789 2.55606 6.03863C2.55606 4.97936 3.03239 4.02985 3.78789 3.37919L2.09401 1.5166C0.810139 2.62287 0 4.23896 0 6.03863C0 7.83829 0.810464 9.45612 2.09547 10.5625Z" fill="#303030"/>
<path d="M9.78784 6.75122C9.44867 8.37282 7.9751 9.59107 6.20892 9.59107C5.80362 9.59107 5.41336 9.52752 5.04956 9.4086L4.23828 11.7673C4.85712 11.9682 5.51971 12.077 6.20892 12.077C9.21017 12.077 11.7148 10.0055 12.2918 7.25081L9.78784 6.75122Z" fill="#303030"/>
<path d="M14.4829 8.77864C14.4008 8.64932 14.2894 8.44258 14.2222 8.2904C13.8256 7.39482 13.8066 6.46803 14.1415 5.57828C14.5098 4.60261 15.2132 3.85559 16.1221 3.47521C17.2648 2.99691 18.5285 3.09121 19.6237 3.72327C20.3193 4.11153 20.8125 4.71095 21.187 5.55857C21.2347 5.66707 21.2767 5.78298 21.3176 5.88139L14.4829 8.77864ZM16.7651 4.91296C15.9536 5.25217 15.5353 5.99256 15.6213 6.86069L19.0587 5.42169C18.4675 4.74611 17.6984 4.52218 16.7651 4.91296ZM19.4875 8.04392C19.4867 8.04454 19.4862 8.04518 19.4855 8.0458L19.4144 7.99914C19.2093 8.32289 18.8892 8.58514 18.4854 8.75545C17.717 9.08047 17.005 8.99689 16.4937 8.56069L16.4467 8.63024C16.4467 8.63024 16.446 8.62882 16.4452 8.62882L15.5731 9.89783C15.7896 10.0442 16.022 10.1681 16.2662 10.2671C17.2296 10.6564 18.2151 10.6384 19.1861 10.2276C19.8884 9.93156 20.4395 9.48008 20.8161 8.90794L19.4875 8.04392Z" fill="#303030"/>
<path d="M23.7068 1.60645V8.66159L24.8344 9.10614L24.1936 10.5604L22.9489 10.0563C22.6694 9.93863 22.4792 9.75855 22.3353 9.55527C22.1976 9.34805 22.0947 9.06372 22.0947 8.68083V1.60645H23.7068Z" fill="#303030"/>
<path d="M26.6283 6.86381C26.629 6.26296 26.9016 5.72425 27.3333 5.35809L26.1763 4.10327C25.3916 4.77791 24.8975 5.76367 24.8965 6.86206C24.8951 7.96077 25.3887 8.94763 26.1726 9.62402L27.3282 8.36792C26.8988 8.00019 26.6278 7.46323 26.6283 6.86381Z" fill="#303030"/>
<path d="M28.6838 8.86609C28.4561 8.86547 28.2367 8.82887 28.0321 8.76264L27.4795 10.3606C27.8572 10.4839 28.2616 10.5511 28.682 10.5518C30.5139 10.5535 32.0436 9.28922 32.3979 7.60845L30.6997 7.27112C30.5066 8.18249 29.6774 8.8669 28.6838 8.86609Z" fill="#303030"/>
<path d="M28.6887 3.17957C28.2688 3.17909 27.8644 3.24548 27.4873 3.36771L28.035 4.96709C28.2402 4.90116 28.4596 4.86474 28.6871 4.86474C29.6829 4.86569 30.5128 5.55435 30.7013 6.46791L32.3998 6.1328C32.0504 4.44983 30.5221 3.18083 28.6887 3.17957Z" fill="#303030"/>
</svg>
