<svg width="39" height="30" viewBox="0 0 39 30" fill="none" xmlns="http://www.w3.org/2000/svg">
<g clip-path="url(#clip0_22_2760)">
<path d="M33.6833 10.0525H31.4573V8.90433C31.4573 7.99049 30.7074 7.24067 29.7936 7.24067C28.8798 7.24067 28.1299 7.99049 28.1299 8.90433V10.0525H25.9039V8.90433C25.9039 6.7486 27.6613 5.01465 29.7936 5.01465C31.9493 5.01465 33.6833 6.77204 33.6833 8.90433V10.0525Z" fill="#FFA400"/>
<path d="M34.5971 10.0522H24.9901C24.5683 10.0522 24.2402 10.3803 24.2402 10.8021V17.9019C24.2402 18.3237 24.5683 18.6517 24.9901 18.6517H34.5971C35.0189 18.6517 35.3469 18.3237 35.3469 17.9019V10.8021C35.3235 10.3803 34.9955 10.0522 34.5971 10.0522ZM30.2622 14.7152V15.6759C30.2622 15.9336 30.0513 16.168 29.7702 16.168C29.5124 16.168 29.2781 15.9571 29.2781 15.6759V14.7152C28.9735 14.5512 28.786 14.2231 28.786 13.8482C28.786 13.3093 29.2312 12.8641 29.7702 12.8641C30.3091 12.8641 30.7543 13.3093 30.7543 13.8482C30.7777 14.2231 30.5668 14.5512 30.2622 14.7152Z" fill="#003A70"/>
<path d="M24.0059 8.99772H21.6862C21.3113 8.99772 21.0067 8.6931 21.0067 8.3182C21.0067 7.94329 21.3113 7.63867 21.6862 7.63867H24.0059C24.3808 7.63867 24.6855 7.94329 24.6855 8.3182C24.6855 8.6931 24.3808 8.99772 24.0059 8.99772Z" fill="#FFA400"/>
<path d="M25.6462 5.34224C25.5056 5.34224 25.3415 5.29538 25.2244 5.17822L23.3967 3.67858C23.1155 3.44426 23.0687 3.02249 23.303 2.71788C23.5373 2.4367 23.9591 2.38983 24.2637 2.62415L26.0914 4.12379C26.3725 4.35811 26.4194 4.77988 26.1851 5.08449C26.0211 5.24852 25.8336 5.34224 25.6462 5.34224Z" fill="#FFA400"/>
<path d="M29.7936 3.7491C29.4187 3.7491 29.1141 3.44449 29.1141 3.06958V0.726398C29.1141 0.351489 29.4187 0.046875 29.7936 0.046875C30.1685 0.046875 30.4731 0.351489 30.4731 0.726398V3.06958C30.4731 3.44449 30.1685 3.7491 29.7936 3.7491Z" fill="#FFA400"/>
<path d="M33.9173 5.34224C33.7298 5.34224 33.519 5.24852 33.4018 5.08449C33.1675 4.80331 33.2143 4.35811 33.4955 4.12379L35.3232 2.62415C35.6044 2.38983 36.0496 2.4367 36.2839 2.71788C36.5182 2.99906 36.4714 3.44426 36.1902 3.67858L34.3625 5.17822C34.2219 5.29538 34.0813 5.34224 33.9173 5.34224Z" fill="#FFA400"/>
<path d="M37.878 8.99772H35.5348C35.1599 8.99772 34.8553 8.6931 34.8553 8.3182C34.8553 7.94329 35.1599 7.63867 35.5348 7.63867H37.878C38.2529 7.63867 38.5575 7.94329 38.5575 8.3182C38.5575 8.6931 38.2529 8.99772 37.878 8.99772Z" fill="#FFA400"/>
<path d="M0.0585938 18.5582V10.9897H1.88628V16.9648H4.81526V18.5582H0.0585938ZM10.8607 15.9573V16.1681V16.379H6.99442C7.01785 16.5196 7.06471 16.6602 7.13501 16.7774C7.2053 16.8945 7.29903 17.0117 7.41619 17.082C7.53335 17.1757 7.67394 17.246 7.81453 17.2929C7.95512 17.3397 8.11914 17.3632 8.25974 17.3632C8.54092 17.3632 8.77524 17.3163 8.96269 17.1991C9.15015 17.1054 9.31417 16.9648 9.43133 16.8008L10.6498 17.5741C10.392 17.949 10.064 18.2067 9.66565 18.4176C9.26731 18.6051 8.77524 18.7222 8.2363 18.7222C7.83796 18.7222 7.46305 18.6519 7.11158 18.5348C6.7601 18.4176 6.45548 18.2301 6.1743 17.9958C5.91655 17.7615 5.70567 17.4569 5.54164 17.1054C5.37762 16.7539 5.30732 16.3556 5.30732 15.9104C5.30732 15.4652 5.37762 15.0903 5.54164 14.7388C5.68223 14.3873 5.89312 14.0827 6.15087 13.8484C6.40862 13.6141 6.71323 13.4032 7.06471 13.286C7.41619 13.1454 7.7911 13.0751 8.18944 13.0751C8.58778 13.0751 8.93926 13.1454 9.2673 13.2626C9.59535 13.4032 9.87653 13.5906 10.1109 13.825C10.3452 14.0827 10.5326 14.3873 10.6498 14.7388C10.7904 15.1137 10.8607 15.5121 10.8607 15.9573ZM9.24387 15.3012C9.24387 15.02 9.15015 14.7857 8.98612 14.5748C8.8221 14.3639 8.54092 14.2702 8.18944 14.2702C8.02542 14.2702 7.86139 14.2936 7.7208 14.3405C7.58021 14.3873 7.46305 14.4576 7.34589 14.5514C7.22874 14.6451 7.15844 14.7622 7.08814 14.8794C7.01785 14.9966 6.99442 15.1371 6.97098 15.2777H9.24387V15.3012ZM13.6725 14.5514V16.5899C13.6725 16.8477 13.7194 17.0351 13.8131 17.1523C13.9068 17.2694 14.0708 17.3397 14.3286 17.3397C14.4223 17.3397 14.516 17.3397 14.6098 17.3163C14.7035 17.2929 14.7972 17.2694 14.8441 17.246L14.8675 18.5348C14.7504 18.5816 14.5863 18.6051 14.3989 18.6519C14.2114 18.6754 14.024 18.6988 13.8365 18.6988C13.485 18.6988 13.1804 18.6519 12.9461 18.5582C12.7118 18.4645 12.5009 18.3473 12.3603 18.1833C12.2197 18.0193 12.1026 17.8084 12.0557 17.5741C12.0088 17.3397 11.962 17.082 11.962 16.8008V14.5514H11.095V13.2392H11.9385V11.8333H13.6725V13.2392H14.9144V14.5514H13.6725ZM16.5312 10.8491C16.0157 10.8491 15.5939 11.224 15.5939 11.7161C15.5939 12.2316 15.9454 12.5596 16.4609 12.5596C16.5077 12.5596 16.5546 12.5596 16.578 12.5362C16.4843 12.9111 16.1328 13.1923 15.7814 13.2392H15.7111V14.0593H15.8048C16.2266 14.0124 16.6249 13.825 16.9295 13.5438C17.3279 13.1689 17.5387 12.6065 17.5387 11.9504C17.5387 11.3178 17.117 10.8491 16.5312 10.8491ZM20.5849 14.8091C20.4443 14.6685 20.2803 14.5514 20.0928 14.4576C19.9054 14.3639 19.6945 14.317 19.4836 14.317C19.3196 14.317 19.179 14.3405 19.0384 14.4108C18.8978 14.4811 18.8275 14.5748 18.8275 14.7388C18.8275 14.8794 18.8978 14.9966 19.0618 15.0669C19.2258 15.1371 19.4602 15.2074 19.8116 15.2777C20.0225 15.3246 20.21 15.3715 20.4209 15.4652C20.6317 15.5589 20.7958 15.6526 20.9598 15.7698C21.1238 15.887 21.2644 16.051 21.3581 16.2384C21.4519 16.4259 21.4987 16.6368 21.4987 16.8945C21.4987 17.2226 21.4284 17.5038 21.2878 17.7381C21.1472 17.9724 20.9832 18.1599 20.7489 18.3004C20.538 18.441 20.2803 18.5348 20.0225 18.6051C19.7413 18.6754 19.4836 18.6988 19.2024 18.6988C18.7572 18.6988 18.3354 18.6285 17.9371 18.4879C17.5153 18.3473 17.1638 18.1364 16.9061 17.8787L17.8902 16.8477C18.0542 17.0117 18.2417 17.1523 18.476 17.2694C18.7103 17.3866 18.9447 17.4335 19.2024 17.4335C19.343 17.4335 19.4836 17.41 19.6242 17.3397C19.7648 17.2694 19.8351 17.1523 19.8351 16.9883C19.8351 16.8242 19.7413 16.7071 19.5773 16.6134C19.4133 16.5431 19.1321 16.4493 18.7806 16.379C18.5932 16.3322 18.4057 16.2853 18.2183 16.215C18.0308 16.1447 17.8668 16.051 17.7262 15.9338C17.5856 15.8167 17.4684 15.6526 17.3747 15.4886C17.281 15.3012 17.2341 15.0903 17.2341 14.856C17.2341 14.5279 17.3044 14.2702 17.445 14.0359C17.5856 13.8015 17.7496 13.6375 17.9605 13.4969C18.1714 13.3563 18.4057 13.2392 18.6635 13.1923C18.9212 13.122 19.179 13.0986 19.4367 13.0986C19.8351 13.0986 20.2334 13.1689 20.6083 13.286C20.9832 13.4032 21.3113 13.5906 21.569 13.8484L20.5849 14.8091ZM0.0585938 27.3217V19.7532H5.1433V21.2997H1.81598V22.7291H4.95585V24.1818H1.81598V25.7518H5.33076V27.3217H0.0585938ZM9.94683 27.3217V24.4162C9.94683 24.2756 9.9234 24.135 9.89996 23.9944C9.87653 23.8538 9.82967 23.7366 9.78281 23.6429C9.73594 23.5492 9.64221 23.4554 9.54849 23.4086C9.45476 23.3383 9.31417 23.3149 9.15015 23.3149C8.98612 23.3149 8.84553 23.3383 8.72837 23.4086C8.61121 23.4789 8.51749 23.5492 8.42376 23.6663C8.35346 23.7835 8.28317 23.9007 8.2363 24.0412C8.18944 24.1818 8.16601 24.3224 8.16601 24.463V27.3451H6.40862V22.0261H8.09571V22.7525H8.11914C8.18944 22.6353 8.25974 22.5182 8.37689 22.4244C8.47062 22.3073 8.61121 22.2136 8.72837 22.1433C8.86896 22.073 9.00955 22.0027 9.17358 21.9558C9.3376 21.9089 9.50162 21.8855 9.68908 21.8855C10.0406 21.8855 10.3452 21.9558 10.6029 22.073C10.8607 22.1901 11.0481 22.3776 11.2121 22.565C11.3762 22.7759 11.4699 23.0102 11.5402 23.268C11.6105 23.5257 11.6339 23.7835 11.6339 24.0647V27.3451H9.94683V27.3217ZM16.2266 23.7132C16.1328 23.596 15.9922 23.4789 15.8282 23.4086C15.6642 23.3383 15.4767 23.2914 15.3127 23.2914C15.1253 23.2914 14.9612 23.3383 14.8206 23.4086C14.6801 23.4789 14.5395 23.5726 14.4457 23.7132C14.352 23.8538 14.2583 23.971 14.188 24.135C14.1177 24.299 14.0943 24.463 14.0943 24.6505C14.0943 24.8379 14.1177 25.0019 14.188 25.166C14.2349 25.33 14.3286 25.4706 14.4457 25.5877C14.5629 25.7049 14.6801 25.8221 14.8441 25.8924C15.0081 25.9627 15.1721 26.0095 15.3596 26.0095C15.547 26.0095 15.7111 25.9861 15.8985 25.9158C16.0625 25.8455 16.2031 25.7518 16.3203 25.6112L17.281 26.8062C17.0701 27.0171 16.7655 27.1811 16.4374 27.2983C16.086 27.4154 15.7111 27.4857 15.3362 27.4857C14.9144 27.4857 14.516 27.4154 14.1646 27.2983C13.7896 27.1811 13.485 26.9937 13.2039 26.7359C12.9461 26.5016 12.7352 26.197 12.5712 25.8455C12.4072 25.494 12.3369 25.0957 12.3369 24.6505C12.3369 24.2053 12.4072 23.8304 12.5712 23.4789C12.7352 23.1274 12.9461 22.8228 13.2039 22.5885C13.4616 22.3542 13.7896 22.1433 14.1646 22.0261C14.5395 21.8855 14.9144 21.8387 15.3362 21.8387C15.5236 21.8387 15.7111 21.8621 15.8985 21.8855C16.086 21.9324 16.2734 21.9792 16.4374 22.0261C16.6015 22.0964 16.7655 22.1667 16.9295 22.2604C17.0701 22.3542 17.2107 22.4479 17.3044 22.565L16.2266 23.7132ZM21.3347 23.4554C21.2644 23.432 21.1707 23.4086 21.1004 23.4086H20.8895C20.6552 23.4086 20.4677 23.4554 20.3037 23.5257C20.1397 23.6195 20.0225 23.7132 19.9288 23.8304C19.8351 23.9475 19.7648 24.0881 19.7179 24.2287C19.671 24.3693 19.6476 24.4864 19.6476 24.6036V27.3217H17.8902V22.0027H19.5773V22.7759H19.6007C19.7413 22.4947 19.9288 22.2839 20.1865 22.1198C20.4443 21.9558 20.7255 21.8621 21.0535 21.8621H21.2644C21.3347 21.8621 21.3816 21.8855 21.4284 21.8855L21.3347 23.4554ZM25.4587 28.1184C25.3415 28.3996 25.2244 28.6339 25.1072 28.8682C24.9666 29.0791 24.826 29.2665 24.6386 29.4306C24.4511 29.5946 24.2402 29.6883 24.0059 29.782C23.7716 29.8523 23.467 29.8992 23.139 29.8992C22.9749 29.8992 22.8109 29.8992 22.6235 29.8758C22.4594 29.8523 22.2954 29.8289 22.1782 29.782L22.3657 28.3058C22.4594 28.3293 22.5532 28.3527 22.6469 28.3761C22.7406 28.3996 22.8343 28.3996 22.9281 28.3996C23.2092 28.3996 23.3967 28.3293 23.5139 28.2121C23.631 28.095 23.7482 27.9075 23.8185 27.6732L23.9825 27.228L21.7565 22.0027H23.7013L24.8963 25.4237H24.9198L25.9742 22.0027H27.8253L25.4587 28.1184ZM34.2222 24.6505C34.2222 25.0254 34.1753 25.3769 34.0582 25.7283C33.941 26.0798 33.777 26.361 33.5661 26.6422C33.3552 26.8999 33.074 27.1108 32.7694 27.2748C32.4648 27.4389 32.0899 27.5092 31.6916 27.5092C31.3635 27.5092 31.0589 27.4389 30.7543 27.3217C30.4731 27.1811 30.2388 27.0171 30.0748 26.7828H30.0513V29.9461H28.294V22.073H29.9576V22.7291H29.981C30.1451 22.5182 30.3794 22.3307 30.6606 22.1667C30.9418 22.0027 31.2932 21.9324 31.6916 21.9324C32.0665 21.9324 32.418 22.0027 32.746 22.1667C33.0506 22.3073 33.3318 22.5182 33.5427 22.7759C33.7536 23.0337 33.9176 23.3383 34.0348 23.6663C34.1519 23.9241 34.2222 24.2756 34.2222 24.6505ZM32.5117 24.6505C32.5117 24.4864 32.4883 24.3224 32.4414 24.1584C32.3945 23.9944 32.3008 23.8538 32.2071 23.7366C32.1133 23.6195 31.9728 23.5023 31.8087 23.432C31.6447 23.3617 31.4807 23.3149 31.2698 23.3149C31.0589 23.3149 30.8949 23.3617 30.7309 23.432C30.5668 23.5023 30.4497 23.6195 30.3325 23.7366C30.2154 23.8538 30.1451 24.0178 30.0748 24.1818C30.0045 24.3459 29.981 24.5099 29.981 24.6739C29.981 24.8379 30.0045 25.0019 30.0748 25.166C30.1451 25.33 30.2154 25.4706 30.3325 25.6112C30.4497 25.7283 30.5668 25.8455 30.7309 25.9158C30.8949 25.9861 31.0589 26.033 31.2698 26.033C31.4807 26.033 31.6681 25.9861 31.8087 25.9158C31.9728 25.8455 32.0899 25.7283 32.2071 25.6112C32.3008 25.494 32.3945 25.33 32.4414 25.166C32.4883 24.9785 32.5117 24.8145 32.5117 24.6505ZM37.0106 23.3149V25.3534C37.0106 25.6112 37.0575 25.7986 37.1512 25.9158C37.2449 26.033 37.4089 26.1032 37.6667 26.1032C37.7604 26.1032 37.8541 26.1032 37.9479 26.0798C38.0416 26.0564 38.1353 26.033 38.1822 26.0095L38.2056 27.2983C38.0885 27.3451 37.9244 27.3686 37.737 27.4154C37.5495 27.4389 37.3621 27.4623 37.1746 27.4623C36.8231 27.4623 36.5185 27.4154 36.2842 27.3217C36.0499 27.228 35.839 27.1108 35.6984 26.9468C35.5578 26.7828 35.4407 26.5719 35.3938 26.3376C35.3469 26.1032 35.3001 25.8455 35.3001 25.5643V23.3149H34.4565V22.0027H35.3001V20.5968H37.0106V22.0027H38.2525V23.3149H37.0106Z" fill="#003A70"/>
</g>
<defs>
<clipPath id="clip0_22_2760">
<rect width="38.593" height="30" fill="white"/>
</clipPath>
</defs>
</svg>
