<svg width="53" height="19" viewBox="0 0 53 19" fill="none" xmlns="http://www.w3.org/2000/svg">
<g clip-path="url(#clip0_22_2781)">
<path d="M38.3077 7.11582H36.4077V13.6C36.4068 13.7222 36.3076 13.8211 36.185 13.822H34.7217C34.5991 13.8211 34.4999 13.7222 34.499 13.6V7.11582H32.585C32.527 7.11817 32.4706 7.09697 32.4286 7.05708C32.3866 7.01718 32.3627 6.96201 32.3623 6.90419V5.75584C32.3626 5.69802 32.3866 5.64284 32.4286 5.60295C32.4706 5.56305 32.527 5.54186 32.585 5.54421H38.3043C38.4276 5.53831 38.5326 5.63288 38.5391 5.75584V6.90419C38.5326 7.02574 38.4298 7.11977 38.3077 7.11582Z" fill="#FF3366"/>
<path d="M44.4011 13.7785C43.652 13.8854 42.8958 13.9341 42.1392 13.9242C40.6967 13.9242 39.4231 13.5565 39.4231 11.5287V7.82863C39.4231 5.80081 40.7089 5.4452 42.1496 5.4452C42.9004 5.43494 43.6509 5.48308 44.3941 5.58918C44.5507 5.61173 44.6169 5.66724 44.6169 5.81121V6.85201C44.616 6.97425 44.5168 7.07311 44.3941 7.07405H42.0452C41.5232 7.07405 41.3301 7.24752 41.3301 7.8321V8.84515H44.3124C44.435 8.84608 44.5341 8.94495 44.5351 9.06718V10.1253C44.5342 10.2476 44.435 10.3464 44.3124 10.3474H41.3301V11.5287C41.3301 12.1081 41.5197 12.2867 42.0452 12.2867H44.4011C44.5237 12.2877 44.6229 12.3865 44.6238 12.5088V13.5496C44.6256 13.6883 44.5577 13.756 44.4011 13.7785Z" fill="#FF3366"/>
<path d="M52.8329 13.8221H51.0564C50.9326 13.8313 50.8163 13.7618 50.7659 13.6486L49.2243 11.2201L47.8323 13.6035C47.754 13.7371 47.6757 13.8255 47.5522 13.8255H45.9027C45.8595 13.8333 45.8151 13.8215 45.7814 13.7933C45.7478 13.7652 45.7285 13.7236 45.7287 13.6798C45.731 13.6526 45.7386 13.626 45.7513 13.6018L48.1751 9.57908L45.7287 5.75588C45.7161 5.73534 45.7083 5.7122 45.7061 5.68822C45.7143 5.6004 45.7918 5.53549 45.8801 5.54251H47.6792C47.8027 5.54251 47.8915 5.65353 47.9593 5.75414L49.3896 8.00921L50.7815 5.75414C50.832 5.6401 50.9379 5.56008 51.0617 5.54251H52.7164C52.8046 5.53549 52.8821 5.6004 52.8904 5.68822C52.8881 5.7122 52.8804 5.73534 52.8677 5.75588L50.4318 9.60163L52.9669 13.5914C52.9865 13.6253 52.9978 13.6633 53 13.7024C52.9791 13.7787 52.9217 13.8221 52.8329 13.8221Z" fill="#FF3366"/>
<path d="M29.6862 5.56646C29.6027 5.56461 29.5297 5.62212 29.5122 5.7035L27.8888 11.6916C27.8662 11.8147 27.8331 11.865 27.7322 11.865C27.6313 11.865 27.5982 11.8199 27.5756 11.6916L25.9575 5.7035C25.9399 5.62212 25.8669 5.56461 25.7835 5.56646H24.1862C24.1326 5.56514 24.0813 5.58856 24.0473 5.62991C24.0133 5.67126 24.0004 5.72593 24.0122 5.77809C24.0122 5.77809 25.994 12.6422 26.0149 12.7168C26.2794 13.5355 26.9214 13.931 27.7374 13.931C28.5204 13.959 29.2255 13.462 29.46 12.7168C29.4913 12.6231 31.4297 5.77809 31.4297 5.77809C31.4408 5.72619 31.4276 5.67203 31.3937 5.63111C31.3597 5.59019 31.3089 5.56701 31.2557 5.56819L29.6862 5.56646Z" fill="#FF3366"/>
<path d="M20.6332 7.10598e-05H3.97824C3.37557 0.00556419 2.81923 0.323439 2.50982 0.839078C2.20042 1.35472 2.18258 1.99375 2.46273 2.52575L4.12961 5.68978H1.10903C0.723133 5.68278 0.362332 5.8799 0.160608 6.20795C-0.0411165 6.53601 -0.0536374 6.94599 0.127695 7.28567L5.48679 17.3814C5.67909 17.744 6.05674 17.9708 6.46813 17.9708C6.87951 17.9708 7.25716 17.744 7.44947 17.3814L8.90408 14.6459L10.731 18.0909C11.0281 18.6502 11.6109 19 12.2457 19C12.8805 19 13.4633 18.6502 13.7603 18.0909L22.1121 2.43554C22.3887 1.92025 22.3721 1.29775 22.0685 0.79782C21.7649 0.297891 21.2193 -0.00533361 20.6332 7.10598e-05ZM13.1913 6.61436L9.53742 13.4455C9.41189 13.6814 9.16589 13.8289 8.89799 13.8289C8.63008 13.8289 8.38409 13.6814 8.25855 13.4455L4.6516 6.68027C4.54032 6.47208 4.54682 6.22093 4.66872 6.01873C4.79062 5.81653 5.01004 5.69296 5.24667 5.69325H12.6276C12.85 5.68984 13.0576 5.80393 13.1735 5.99322C13.2893 6.1825 13.2961 6.41875 13.1913 6.61436Z" fill="#FF3366"/>
</g>
<defs>
<clipPath id="clip0_22_2781">
<rect width="53" height="19" fill="white"/>
</clipPath>
</defs>
</svg>
