<svg width="149" height="27" viewBox="0 0 149 27" fill="none" xmlns="http://www.w3.org/2000/svg">
<path d="M146.198 0.00358902C145.252 0.0843524 144.529 0.883164 144.543 1.83276V24.4475C144.529 25.3973 145.251 26.1965 146.198 26.2772C146.684 26.3073 147.16 26.1353 147.515 25.8019C147.87 25.4686 148.071 25.0035 148.071 24.5168L148.071 1.76408C148.071 1.27727 147.87 0.81211 147.515 0.478732C147.16 0.145355 146.684 -0.0265986 146.198 0.00358902Z" fill="black"/>
<path d="M50.1751 0.189293C49.2942 -0.251752 48.2224 0.104976 47.7815 0.98602L37.9255 20.6809C37.9238 20.6842 37.9205 20.6863 37.9168 20.6863C37.9132 20.6863 37.9098 20.6842 37.9082 20.6809L28.0521 0.986021C27.5983 0.129978 26.544 -0.207167 25.6776 0.22667C24.8113 0.660508 24.4497 1.70664 24.8632 2.58287L36.2286 25.2954C36.5309 25.9001 37.1491 26.2818 37.8251 26.2812C37.8554 26.2812 37.8862 26.2775 37.9167 26.2761C37.9472 26.2747 37.978 26.2812 38.0086 26.2812C38.6845 26.2817 39.3027 25.9 39.6051 25.2954L50.9719 2.58287C51.4127 1.70188 51.056 0.630303 50.1751 0.189293Z" fill="black"/>
<path d="M106.943 0.180204C105.994 0.261793 105.27 1.06227 105.284 2.01389V19.2754C105.285 19.2796 105.282 19.2834 105.278 19.2848C105.274 19.2862 105.27 19.2848 105.267 19.2813L91.0132 0.692043C90.4543 -0.0355279 89.4323 -0.215609 88.6584 0.277147C88.1404 0.617733 87.8328 1.19965 87.843 1.81945V24.4438C87.8289 25.3953 88.5528 26.1958 89.5009 26.2772C89.9878 26.3074 90.4655 26.135 90.821 25.8009C91.1765 25.4668 91.3781 25.0006 91.3781 24.5128V7.00567C91.3782 7.00168 91.3808 6.99817 91.3845 6.99685C91.3883 6.99553 91.3925 6.99668 91.3951 6.99973L105.65 25.5885C106.218 26.3289 107.263 26.5009 108.038 25.9816C108.536 25.6375 108.83 25.0673 108.82 24.4619V1.94465C108.82 1.45706 108.619 0.990864 108.263 0.656695C107.907 0.322386 107.43 0.150023 106.943 0.180204Z" fill="black"/>
<path d="M137.488 0.000212101H116.126C115.177 -0.0142099 114.378 0.708526 114.297 1.655C114.267 2.14075 114.439 2.61729 114.772 2.97188C115.106 3.32647 115.571 3.5276 116.057 3.52769L125 3.52769C125.005 3.52784 125.009 3.53205 125.009 3.5373L125.009 24.4475C124.995 25.3971 125.717 26.1962 126.663 26.2773C127.149 26.3072 127.626 26.1351 127.98 25.8018C128.335 25.4685 128.536 25.0034 128.536 24.5168V3.5373C128.536 3.53221 128.54 3.52799 128.545 3.52769L137.42 3.52769C138.369 3.54181 139.168 2.81916 139.249 1.87291C139.279 1.38711 139.107 0.910518 138.773 0.555921C138.44 0.201324 137.975 0.000225173 137.488 0.000212101Z" fill="black"/>
<path d="M14.9326 0.985159C14.6149 0.350674 13.9513 -0.0351188 13.2428 0.00274453C12.5355 -0.0335159 11.8737 0.352002 11.5563 0.985159L0.189052 23.6986C-0.251906 24.5795 0.104801 25.6512 0.98578 26.0921C1.86676 26.5331 2.9384 26.1764 3.37936 25.2954L6.17172 19.716C6.17326 19.7128 6.17657 19.7107 6.1802 19.7107H20.3088C20.3124 19.7107 20.3157 19.7128 20.3173 19.716L23.1096 25.2954C23.5506 26.1763 24.6222 26.5329 25.503 26.092C26.3839 25.651 26.7406 24.5795 26.2996 23.6986L14.9326 0.985159ZM7.52014 17.0212L13.236 5.60019C13.2375 5.59687 13.2408 5.59475 13.2445 5.59475C13.2481 5.59475 13.2514 5.59687 13.253 5.60019L18.9691 17.0212C18.9706 17.0241 18.9705 17.0276 18.9687 17.0304C18.967 17.0331 18.9639 17.0348 18.9606 17.0348H7.52862C7.52534 17.0348 7.52227 17.0331 7.52054 17.0304C7.5188 17.0276 7.51865 17.0241 7.52014 17.0212Z" fill="black"/>
<path d="M82.4803 23.8647C82.4593 23.8047 82.4346 23.7461 82.4066 23.6891L71.9392 2.53897C71.4014 1.29602 70.2816 0.401212 68.9507 0.150939C67.6197 -0.0993334 66.2513 0.327601 65.2988 1.29032L62.7269 6.18713L56.5546 19.188C55.5354 21.1523 53.9284 22.4529 52.0139 22.9083L61.465 3.87834C61.4839 3.83962 61.5014 3.80034 61.5176 3.76049C61.672 3.41322 62.0167 3.18964 62.3968 3.19015C62.4325 3.19075 62.4682 3.1934 62.5036 3.19806L64.0581 0.43311C63.0622 -0.0109501 61.9299 -0.0375667 60.9143 0.359208C59.8986 0.755983 59.0843 1.54308 58.6531 2.54462L48.1747 23.6462C48.1586 23.6764 48.1436 23.7072 48.1295 23.7392C47.8966 24.2546 47.9318 24.8516 48.2235 25.3361C48.5153 25.8207 49.0264 26.131 49.5909 26.1664C49.8761 26.1901 50.1647 26.202 50.4498 26.202C54.2011 26.202 57.5215 24.1057 59.3306 20.5935C59.3382 20.5785 59.3459 20.5636 59.3529 20.548L65.2423 8.1415L65.244 8.13755L65.2963 8.02789L67.0203 4.40601L67.0178 4.40064L67.2772 3.85404C67.2882 3.83105 67.2984 3.80797 67.308 3.78479C67.4573 3.42481 67.8086 3.19014 68.1983 3.19014C68.588 3.19014 68.9393 3.42481 69.0886 3.78479C69.1013 3.81616 69.1168 3.84725 69.1307 3.87778L78.5484 22.9074C76.6475 22.4507 75.0484 21.1509 74.0306 19.1886L67.8326 6.11704L66.1213 9.76746L71.2318 20.5458C71.2391 20.561 71.2467 20.5766 71.2544 20.5918C73.0915 24.1563 76.3179 26.2003 80.1094 26.2003C80.4087 26.2003 80.7117 26.187 81.0098 26.161C81.1986 26.1448 81.3829 26.094 81.5533 26.0112C82.3825 25.6538 82.7889 24.7117 82.4801 23.8632" fill="black"/>
</svg>
